P2
80 60
399
46 59 109 138 107 116 85 63 46 38 40 42 42 40 43 43 44 48 50 58 61 70 74 69 71 78 76 76 75 77 76 76 76 79 81 83 84 87 89 89 90 91 92 89 89 93 91 90 87 88 90 84 86 77 72 74 78 78 83 85 77 77 91 187 254 286 298 307 312 314 317 311 305 292 285 259 246 244 244 239 
44 50 81 146 108 111 100 78 55 41 46 42 40 41 40 44 44 46 51 56 57 70 66 65 70 74 76 73 74 80 78 77 76 79 81 85 84 85 88 91 92 93 92 92 93 93 90 89 90 89 91 86 90 84 81 80 87 82 88 83 77 86 151 236 264 291 295 305 309 320 310 310 307 296 290 269 251 238 237 240 
40 46 66 120 141 107 108 89 74 49 46 41 44 41 39 42 43 44 48 53 57 64 65 62 70 72 77 80 75 79 79 82 83 82 85 85 84 84 88 88 90 95 95 95 92 95 90 91 90 90 89 89 88 85 76 77 83 84 81 84 81 113 231 252 274 287 294 303 309 311 313 307 307 297 290 276 256 241 228 234 
46 46 51 81 145 123 116 101 87 57 45 46 48 41 36 43 47 49 51 53 56 60 62 63 67 73 77 78 80 79 80 83 81 77 83 79 78 71 80 83 87 88 91 88 92 92 89 88 89 87 84 84 82 76 73 78 83 83 82 83 98 194 278 266 273 288 294 304 309 308 308 306 309 299 293 284 261 241 225 234 
52 47 52 70 107 142 117 115 93 74 53 46 43 40 39 43 47 44 48 53 56 58 67 63 66 69 72 80 78 76 77 79 80 78 80 81 77 70 73 82 84 87 88 88 87 90 89 86 88 85 84 82 85 79 77 77 83 83 86 102 189 262 301 279 275 285 294 300 304 307 307 306 304 294 292 284 267 241 224 224 
53 50 53 61 81 138 130 124 114 89 61 50 47 39 41 46 45 45 47 48 54 60 65 63 65 67 72 78 76 74 75 79 76 74 80 79 80 73 78 85 84 86 88 85 89 93 89 89 90 90 88 84 82 83 74 80 84 82 89 153 256 289 314 292 273 284 288 297 302 307 305 304 300 292 289 282 271 242 221 215 
53 55 54 56 65 104 161 132 141 110 82 55 47 43 39 41 40 45 46 54 52 60 62 60 62 67 75 76 77 75 74 75 79 75 79 81 80 80 79 81 83 88 86 88 86 91 86 87 86 87 91 83 84 79 76 79 86 88 101 214 279 308 325 310 272 278 284 295 296 301 299 303 298 293 289 285 267 239 220 220 
53 61 57 54 60 83 152 151 146 134 110 68 50 42 36 41 44 42 46 49 53 61 58 58 61 67 73 78 79 78 79 78 75 76 74 75 75 79 81 81 83 84 84 84 84 90 88 88 87 85 84 81 83 81 77 80 88 91 157 258 290 318 331 325 273 281 284 288 293 296 296 297 294 289 290 284 267 237 220 220 
53 54 55 56 61 75 104 182 151 158 126 93 55 43 38 44 44 44 47 45 48 53 56 56 64 67 76 80 85 84 79 74 73 74 72 72 74 76 76 77 77 81 84 85 85 91 85 84 86 86 88 83 85 78 78 80 89 135 229 280 297 321 333 335 280 275 279 286 290 290 294 296 293 288 287 281 265 237 224 217 
52 49 49 57 62 73 91 146 190 156 141 119 66 46 37 45 46 49 44 40 45 51 53 55 62 65 71 81 83 82 75 75 73 68 72 73 74 76 77 77 77 82 82 84 84 83 87 87 86 85 86 81 85 83 79 83 105 204 257 290 303 314 332 341 294 268 272 285 287 289 293 293 291 287 286 283 263 242 227 221 
44 41 45 53 49 66 87 116 188 159 152 137 102 51 41 42 44 44 38 39 41 49 49 53 59 62 64 74 83 85 74 74 73 69 71 74 72 76 76 74 75 81 79 81 83 85 85 84 86 84 86 84 84 81 82 88 155 244 268 294 298 312 316 330 308 268 271 281 285 292 290 293 292 289 284 282 265 241 233 224 
34 35 36 40 39 49 69 103 162 166 150 150 129 73 44 43 42 41 38 36 35 43 47 50 56 62 63 69 72 74 71 69 68 69 66 69 70 74 74 72 72 77 76 80 83 85 82 86 87 83 83 82 86 84 83 114 215 261 276 288 296 302 308 296 278 265 270 280 285 289 292 290 289 285 283 281 260 241 236 228 
31 30 29 37 35 36 54 85 121 190 151 157 150 110 48 42 40 39 36 36 33 37 42 45 50 58 63 62 61 66 71 75 72 66 66 66 69 71 71 71 76 76 76 77 82 84 83 82 86 85 85 84 87 79 92 178 240 263 272 278 291 296 285 256 248 258 270 280 283 284 292 289 287 288 281 281 259 240 240 235 
27 22 27 28 27 29 42 66 108 172 181 154 165 127 62 43 40 33 38 33 30 35 37 45 48 57 57 61 57 61 66 77 72 66 64 68 67 70 70 70 70 72 75 77 78 84 81 82 86 85 83 85 88 91 144 217 245 261 276 279 282 275 259 232 232 253 263 276 281 285 284 286 288 282 280 275 259 246 243 239 
26 19 25 25 24 26 37 50 87 132 217 173 195 145 89 48 39 33 34 34 31 32 34 38 48 53 60 59 58 59 63 71 70 65 61 63 65 65 69 69 69 72 75 76 76 79 86 80 84 86 84 90 96 152 215 238 269 281 284 270 260 250 230 221 230 253 263 272 276 282 279 282 283 280 280 274 253 245 240 244 
17 17 22 25 23 24 30 42 69 115 155 192 175 158 114 55 37 31 33 31 31 30 29 35 48 56 59 59 54 55 56 62 67 67 61 61 63 65 68 68 71 72 73 74 74 80 80 83 80 84 86 93 161 232 256 263 271 280 258 242 241 243 236 231 245 256 265 271 276 279 280 279 282 280 281 274 254 242 242 246 
25 14 16 18 17 22 30 36 52 86 143 206 174 169 131 82 41 31 33 33 30 28 27 33 43 51 53 57 52 52 53 57 61 61 59 61 63 63 67 68 69 70 73 74 74 78 77 79 80 82 83 124 230 258 265 271 259 243 245 248 249 251 252 246 249 261 265 276 273 281 279 277 281 276 279 273 254 247 245 244 
12 13 13 22 16 20 27 25 40 64 110 147 183 167 149 104 50 34 33 32 28 31 26 26 41 49 50 51 50 54 49 54 59 59 60 61 60 64 66 71 68 68 74 70 73 73 77 80 80 84 99 180 239 250 260 256 231 244 259 264 266 263 255 246 252 263 262 269 275 279 273 277 282 273 274 268 252 245 241 252 
12 12 16 15 15 15 21 24 35 46 81 121 175 164 156 111 72 35 34 32 29 31 26 25 33 45 46 50 52 48 51 52 53 53 58 59 58 61 62 65 65 68 70 71 70 73 75 78 77 108 184 198 210 210 211 223 241 258 273 282 271 268 257 251 257 259 261 268 274 276 272 275 276 274 274 270 254 255 248 251 
13 11 16 14 14 13 19 22 30 41 64 98 135 174 160 128 89 44 33 31 31 30 26 23 34 41 46 49 47 49 48 48 52 51 54 55 56 58 62 65 65 66 68 71 69 72 74 78 79 150 207 208 203 211 211 237 259 273 291 290 275 270 258 252 266 266 258 269 275 273 267 269 275 271 271 268 268 270 249 246 
12 12 13 15 14 14 19 22 30 39 52 70 105 146 153 138 97 64 36 29 28 31 26 29 35 41 43 46 46 50 51 46 47 46 50 54 58 57 60 61 64 67 64 69 68 72 72 77 96 171 198 203 204 222 227 253 273 284 291 287 266 265 260 257 272 270 260 267 275 270 266 268 272 270 274 275 286 278 250 237 
6 7 12 16 13 15 16 19 25 33 41 56 76 101 142 131 113 78 46 32 25 30 27 32 32 32 45 45 45 46 50 47 50 47 54 51 55 57 60 61 67 65 67 65 66 69 69 73 126 198 212 209 222 216 242 263 267 274 284 282 267 263 260 257 280 271 259 269 275 270 267 269 274 267 272 289 295 283 256 237 
12 4 10 11 14 14 16 18 23 31 36 47 52 72 109 119 117 94 66 34 33 33 32 27 31 35 37 46 43 47 49 45 51 46 52 52 51 54 58 62 68 64 61 61 66 69 68 73 157 220 216 224 218 232 262 266 258 258 258 267 256 255 258 265 284 274 257 269 273 274 271 272 271 268 271 289 300 293 264 237 
12 6 10 13 14 14 16 21 22 29 38 42 48 52 78 117 106 102 82 47 34 34 35 29 30 34 43 46 43 48 49 49 50 47 55 55 55 54 59 63 65 64 63 63 63 67 68 78 196 224 231 217 223 246 256 255 253 248 249 248 243 246 253 270 286 277 258 271 275 274 275 270 266 268 269 274 298 300 277 241 
7 3 8 12 13 13 16 21 24 25 35 50 52 46 63 94 113 102 93 63 37 35 34 29 28 39 36 41 42 45 49 44 49 46 52 53 56 57 59 66 65 69 61 64 63 70 68 83 203 240 224 219 244 250 248 255 254 247 239 238 241 249 261 278 286 276 261 270 270 273 273 270 273 268 266 265 277 296 279 235 
4 4 6 10 12 13 16 20 23 26 38 52 58 49 50 73 107 96 100 80 49 45 34 29 28 38 34 40 38 45 48 48 52 50 50 51 53 57 59 65 67 66 64 66 62 67 70 111 220 230 227 234 254 257 255 256 253 248 245 242 243 255 272 287 286 274 264 270 273 275 274 272 270 270 267 265 263 274 271 241 
5 1 4 10 12 14 18 16 23 23 38 54 56 54 54 63 91 102 101 93 69 49 31 26 27 37 34 36 39 39 44 52 64 50 49 50 51 54 58 60 64 71 68 64 63 67 72 152 209 227 230 243 256 267 277 271 264 262 258 247 242 257 276 283 272 261 262 270 270 273 272 274 273 270 270 268 264 264 257 243 
6 2 4 10 13 14 13 17 23 30 45 51 57 62 63 55 71 98 98 103 87 58 38 28 32 33 38 39 38 42 43 46 54 53 50 52 54 55 61 63 69 76 71 66 62 66 70 137 225 225 240 252 265 274 288 282 278 271 262 249 248 262 277 271 259 257 263 269 270 277 273 274 274 271 272 269 265 261 254 262 
6 0 9 10 12 12 14 18 24 33 45 48 55 68 68 59 62 86 102 102 101 76 37 27 30 38 40 42 40 41 44 49 51 49 53 57 56 60 62 70 72 77 78 69 66 70 67 100 212 235 249 258 275 289 296 291 280 270 260 252 247 265 275 259 250 256 262 271 269 278 277 276 275 273 275 271 267 267 255 257 
5 3 8 9 7 10 16 17 30 35 43 45 54 64 70 69 59 71 113 104 106 91 49 31 31 39 41 41 45 53 53 56 60 58 60 59 57 62 66 68 73 78 79 76 70 69 72 87 173 225 254 267 286 297 303 292 279 273 263 256 259 269 271 253 247 251 265 271 270 274 278 277 276 273 276 274 272 268 256 256 
6 3 6 11 10 12 11 19 30 34 41 46 56 61 75 80 64 64 90 109 103 100 72 32 33 43 49 63 83 101 106 115 115 117 107 82 65 64 68 68 70 73 77 71 71 72 89 182 231 243 262 284 303 299 293 291 280 276 263 255 258 267 265 242 246 249 261 272 270 273 278 279 275 273 276 278 276 278 265 256 
8 4 6 11 13 12 13 23 26 32 39 47 50 54 67 77 68 62 74 91 102 108 94 53 45 72 101 113 122 139 145 150 150 150 150 145 126 97 74 69 69 71 72 67 69 81 162 247 265 257 270 292 310 302 289 284 284 278 265 255 257 260 259 243 247 253 256 269 275 280 278 278 276 275 278 278 277 276 266 260 
6 5 12 13 11 11 14 19 25 33 34 40 44 52 57 64 68 61 64 81 101 105 97 88 97 118 127 133 139 145 153 156 162 166 173 176 173 164 143 95 76 74 72 70 70 90 204 253 281 279 276 294 308 306 289 285 285 278 262 254 255 257 254 246 251 249 243 263 280 285 281 277 278 280 278 279 276 277 268 267 
7 1 15 11 13 13 20 22 27 27 35 40 44 50 51 57 68 68 72 80 98 113 108 106 123 129 138 145 151 159 171 179 196 203 215 223 220 229 235 201 119 80 71 70 68 85 181 246 282 287 291 292 305 299 285 285 282 276 260 254 251 257 255 250 250 237 245 249 283 282 279 280 279 276 278 277 275 274 263 263 
6 8 10 8 15 13 20 16 24 28 27 34 41 48 49 58 64 70 87 110 122 118 110 118 127 139 153 159 179 207 239 259 278 286 296 306 283 262 271 262 218 133 80 74 72 79 138 229 269 281 287 291 298 297 291 285 281 267 259 255 255 259 258 250 237 237 237 238 271 283 282 279 281 281 279 277 276 275 265 262 
6 7 11 11 12 15 17 20 25 25 29 33 43 47 52 57 69 87 122 136 122 119 122 129 141 150 168 203 250 298 320 326 331 332 329 331 298 294 298 279 256 224 124 80 76 77 107 211 259 275 278 283 285 294 280 279 271 260 262 261 261 266 256 228 224 233 235 239 253 280 281 283 280 276 276 274 272 275 268 265 
7 8 13 13 14 18 16 18 25 26 26 32 36 40 45 57 76 115 139 130 123 122 134 139 152 173 202 258 328 338 339 340 335 329 325 321 315 322 325 316 291 272 217 125 108 105 111 199 255 272 267 283 282 286 283 284 270 265 257 267 266 262 236 220 223 230 235 238 240 270 280 282 280 275 272 267 266 272 270 265 
9 8 9 13 15 15 18 20 23 28 30 30 34 43 41 58 98 132 132 117 122 131 139 149 182 182 192 309 338 328 327 331 327 321 322 320 319 330 333 336 333 348 343 326 315 306 283 300 268 264 268 290 293 287 282 287 273 265 268 273 263 238 228 224 230 237 235 236 235 253 279 281 278 276 271 265 261 266 266 264 
10 3 12 13 16 13 16 20 22 26 25 29 32 42 46 85 123 128 117 120 128 142 151 180 241 179 156 195 305 322 326 333 328 324 328 326 327 327 330 335 336 353 363 374 373 372 371 368 294 266 259 298 308 282 273 280 263 267 268 273 240 229 231 229 233 237 239 237 232 239 272 282 279 277 271 267 254 258 260 267 
11 10 12 12 14 18 17 20 17 25 26 29 35 40 56 103 134 123 123 125 138 150 182 240 290 175 160 174 293 323 329 333 332 334 334 337 335 343 342 343 344 353 361 372 380 384 383 374 319 271 261 290 302 277 265 263 265 271 267 252 227 235 234 231 232 236 237 238 235 236 256 281 278 275 274 269 259 255 255 261 
5 5 12 16 16 15 17 20 20 25 25 30 33 37 62 108 129 117 124 132 141 165 226 300 283 173 166 179 295 329 336 341 344 340 344 338 340 345 354 352 353 366 373 375 380 389 389 383 331 274 259 266 282 266 260 266 270 264 260 232 230 234 238 235 236 237 239 238 231 234 246 273 276 271 276 273 259 255 249 254 
7 7 15 17 15 14 16 18 21 24 27 27 32 41 76 115 122 119 128 135 141 186 275 319 280 173 166 188 311 333 339 344 345 346 347 345 348 353 355 356 360 372 378 381 382 394 389 382 329 276 251 249 258 262 256 265 264 256 236 228 228 235 238 234 236 243 237 241 233 233 236 260 271 264 269 268 261 256 251 257 
10 7 17 17 14 14 18 17 23 24 26 27 33 45 78 110 117 121 126 137 153 217 318 322 280 182 175 198 318 339 344 353 351 352 352 354 352 356 354 352 356 373 381 386 389 397 389 372 309 276 256 253 254 249 252 262 251 228 227 231 233 236 238 239 239 244 242 239 237 229 229 256 275 266 262 264 262 260 255 249 
10 12 16 18 17 17 17 16 21 25 26 27 32 46 81 112 115 118 133 137 165 253 335 331 297 194 188 222 332 345 350 349 350 350 362 358 355 357 356 355 361 376 382 389 394 399 386 354 301 277 261 254 247 245 252 248 231 225 227 228 234 232 235 234 238 249 242 240 236 231 245 258 263 263 261 256 257 261 264 264 
12 10 14 18 18 18 17 19 23 24 26 26 32 44 78 111 115 118 133 140 180 269 341 341 313 209 214 268 331 321 332 346 349 350 369 361 364 361 354 357 361 370 381 386 398 396 377 326 293 281 261 254 259 254 248 240 233 236 233 232 232 233 236 236 240 254 248 245 245 249 246 239 245 255 262 258 257 264 268 271 
12 11 16 15 13 15 17 19 24 25 26 26 32 39 65 101 116 117 134 144 187 285 343 335 321 264 294 320 324 294 319 338 346 353 363 359 364 361 356 358 360 373 381 392 399 393 367 301 290 268 247 243 258 255 247 246 243 251 252 246 242 243 247 246 251 262 265 266 260 252 232 225 236 249 259 259 257 263 267 272 
11 11 16 19 20 16 17 19 22 23 27 30 35 33 61 103 114 121 133 145 194 281 339 335 319 285 321 328 322 315 331 342 343 358 361 357 366 364 355 354 361 373 384 393 395 388 345 294 283 248 241 247 255 245 238 248 249 255 255 256 254 262 259 259 262 274 277 277 256 239 215 221 231 236 253 254 261 266 268 273 
13 12 12 18 20 16 20 18 22 22 26 25 33 38 61 98 111 119 132 148 194 270 331 331 302 256 281 321 318 311 326 341 347 356 367 361 365 363 357 356 364 379 387 391 390 387 330 289 254 246 254 242 240 230 235 248 252 255 257 262 263 268 271 268 276 278 277 257 235 225 213 217 224 236 241 232 248 268 267 267 
13 12 17 19 17 16 19 22 23 24 27 27 32 36 52 83 103 112 130 142 190 266 323 323 256 189 212 289 317 307 332 342 341 357 363 357 364 359 355 354 362 380 385 391 390 378 309 257 254 256 243 233 229 229 238 248 260 267 267 273 271 278 272 272 265 261 252 238 223 220 214 219 229 229 230 219 215 246 272 270 
12 12 20 19 18 19 18 21 21 25 27 28 30 33 43 63 92 113 128 139 182 248 321 318 216 177 181 258 331 328 348 342 341 350 358 353 360 357 356 355 360 372 380 388 383 350 272 268 277 260 245 232 236 237 251 264 270 274 279 276 271 273 268 258 252 241 234 230 225 225 218 218 221 221 226 210 192 204 237 266 
15 12 17 17 17 17 22 20 25 25 29 27 32 33 33 49 70 100 120 129 164 223 312 305 194 162 164 234 326 342 361 352 343 345 354 351 358 358 358 356 359 366 373 374 366 304 280 276 275 243 239 243 251 250 253 258 271 273 270 266 262 262 256 241 237 230 227 229 227 228 221 220 214 214 207 198 190 198 198 231 
16 15 17 19 19 17 22 18 23 21 30 30 32 30 28 37 53 80 110 119 143 191 257 293 176 156 157 223 312 323 331 338 348 342 345 348 350 353 354 351 352 342 346 339 329 296 294 276 244 248 248 243 245 246 245 249 264 270 268 264 256 250 246 237 231 234 232 230 227 228 219 211 214 208 204 191 186 193 193 213 
14 13 17 18 15 16 19 17 24 24 27 30 31 29 25 35 40 46 70 100 118 165 204 263 169 148 144 228 309 314 314 320 330 334 335 337 337 339 342 330 295 271 184 149 236 289 254 235 242 245 242 239 237 240 256 256 264 264 263 258 254 253 249 243 239 240 238 235 230 228 218 213 212 206 196 190 186 185 195 214 
13 14 17 16 17 18 20 19 23 24 26 29 29 28 26 29 32 31 41 51 81 116 162 196 156 134 138 242 310 306 304 310 310 313 318 320 324 326 305 259 199 124 85 87 201 244 227 233 240 235 241 239 248 261 272 273 272 266 265 263 255 255 253 248 248 245 243 237 235 232 222 213 212 202 192 186 185 189 205 224 
16 16 20 21 16 16 20 17 26 25 28 28 29 27 26 31 33 29 36 35 41 58 94 139 140 141 158 244 297 300 302 303 296 290 287 286 277 254 201 134 94 75 75 92 193 228 228 229 233 232 246 267 276 281 274 273 272 267 265 264 259 257 254 252 252 246 241 237 230 227 221 215 208 200 191 189 189 194 220 225 
18 16 24 22 17 16 21 20 22 24 28 29 26 22 23 29 27 32 30 35 36 44 47 66 103 135 156 186 209 232 240 234 233 227 213 201 179 129 86 74 68 71 75 146 225 235 225 227 238 260 278 286 284 280 265 252 256 259 261 265 260 258 259 256 254 248 247 241 237 232 223 214 210 197 193 188 194 217 222 216 
15 15 23 19 18 20 17 23 17 23 27 27 23 25 25 28 25 29 30 33 31 39 40 36 50 65 71 83 90 99 109 105 101 98 87 80 76 69 65 64 66 66 90 207 237 226 235 251 268 271 279 277 264 256 244 251 258 256 267 267 266 267 269 261 259 256 247 246 241 236 225 212 207 195 200 197 209 226 212 198 
22 18 20 19 14 15 20 19 23 23 25 22 20 22 20 23 25 23 29 27 30 36 35 33 45 49 46 52 51 54 57 62 63 62 60 63 58 63 60 59 59 68 155 228 227 242 260 263 262 253 251 250 247 253 253 262 265 273 280 277 271 278 273 269 267 266 256 249 242 241 221 213 205 202 201 209 219 213 193 178 
25 20 24 24 18 16 20 13 23 26 25 19 15 20 20 22 22 22 25 26 28 33 31 33 41 48 44 46 48 50 53 53 56 54 55 59 55 58 61 62 58 79 196 237 253 255 239 231 226 231 237 246 267 276 277 280 285 285 291 291 290 290 288 280 282 281 272 263 252 243 226 215 206 200 207 205 202 185 175 172 
28 27 25 21 18 16 15 15 25 23 22 15 17 21 19 19 24 24 30 28 28 37 34 33 42 42 43 47 49 51 57 53 58 58 59 64 61 61 63 65 65 110 227 259 247 244 223 217 230 247 258 279 290 294 293 289 276 275 286 287 289 292 292 297 301 295 285 279 260 245 228 213 214 203 205 197 178 164 171 178 


